<svg xmlns="http://www.w3.org/2000/svg" xmlns:xlink="http://www.w3.org/1999/xlink" viewBox="0 0 1718.4 1351.3">
    <defs><style>.cls-1{fill:none;clip-rule:evenodd;}.cls-2{isolation:isolate;}.cls-3{fill:#33bc61;}.cls-4{fill:#71e294;}.cls-5,.cls-6{opacity:0.1;mix-blend-mode:multiply;}.cls-10,.cls-100,.cls-101,.cls-102,.cls-103,.cls-104,.cls-105,.cls-108,.cls-109,.cls-11,.cls-110,.cls-12,.cls-13,.cls-14,.cls-15,.cls-16,.cls-17,.cls-19,.cls-20,.cls-22,.cls-24,.cls-25,.cls-26,.cls-27,.cls-28,.cls-30,.cls-31,.cls-36,.cls-37,.cls-38,.cls-39,.cls-40,.cls-41,.cls-42,.cls-43,.cls-44,.cls-50,.cls-51,.cls-52,.cls-55,.cls-57,.cls-58,.cls-59,.cls-6,.cls-60,.cls-63,.cls-65,.cls-66,.cls-67,.cls-69,.cls-7,.cls-71,.cls-72,.cls-73,.cls-75,.cls-76,.cls-77,.cls-78,.cls-8,.cls-80,.cls-82,.cls-83,.cls-84,.cls-86,.cls-87,.cls-88,.cls-9,.cls-94,.cls-95,.cls-96,.cls-98{fill-rule:evenodd;}.cls-7{fill:#534e6b;}.cls-8{fill:#615b7f;}.cls-9{fill:#e5e5e9;}.cls-10,.cls-32{fill:#2e2e3b;}.cls-11{fill:#393849;}.cls-12{fill:#414054;}.cls-13{fill:#ebeaee;}.cls-14{fill:#4a4961;}.cls-15,.cls-23{fill:#444057;}.cls-16{fill:#625c7f;}.cls-17{fill:#5a5575;}.cls-18{clip-path:url(#clip-path);}.cls-19,.cls-21{fill:#e5ebf8;}.cls-20{fill:#f9fdff;}.cls-22{fill:#a099bf;}.cls-24{fill:#9d9cc2;}.cls-25{fill:#edecf6;}.cls-26,.cls-29{fill:#cfcfe5;}.cls-27{fill:#f6f6f8;}.cls-28{fill:#cdc2e7;}.cls-30,.cls-35{fill:#fff;}.cls-31{fill:#6c6598;}.cls-33{fill:#f0f0fd;}.cls-34{fill:#dedef0;}.cls-36{fill:#9c92d6;}.cls-37{fill:#4a4469;}.cls-38,.cls-56{fill:#7570a4;}.cls-39{fill:#a198c7;}.cls-40{fill:#585080;}.cls-41{fill:#6562a1;}.cls-42{fill:#8084be;}.cls-43{fill:#4d4d8b;}.cls-44{fill:#3d3b73;}.cls-45{fill:#5b609b;}.cls-46{fill:#a6b2d2;}.cls-47{fill:#c0c9da;}.cls-48{fill:#b8c4e1;}.cls-49{fill:#cdd8ed;}.cls-50{fill:#505485;}.cls-51{fill:#757aaa;}.cls-52{fill:#8c8fbe;}.cls-53{fill:#a7b4d8;}.cls-54,.cls-55{fill:#504d85;}.cls-57,.cls-61{fill:#393b75;}.cls-58{fill:#53508e;}.cls-59{fill:#3a3b73;}.cls-60{fill:#7d7bb2;}.cls-62{fill:#cdc4c9;}.cls-63,.cls-64{fill:#dfd5dd;}.cls-65{fill:#e4dde6;}.cls-66{fill:#fefcfa;}.cls-67,.cls-68{fill:#eee8ec;}.cls-69{fill:#cdc4d0;}.cls-70{fill:#787ca5;}.cls-71{fill:#b6a9ad;}.cls-72,.cls-74{fill:#585c81;}.cls-73{fill:#9295b9;}.cls-75{fill:#424b66;}.cls-76{fill:url(#linear-gradient);}.cls-77{fill:url(#linear-gradient-2);}.cls-78{fill:#f5f9ff;}.cls-79{fill:#ecf3ff;}.cls-80{fill:#fdfdff;}.cls-81{fill:url(#Degradado_sin_nombre_11);}.cls-82{fill:url(#linear-gradient-3);}.cls-83{fill:url(#linear-gradient-4);}.cls-84{fill:url(#linear-gradient-5);}.cls-85,.cls-86{fill:#d5f5ff;}.cls-87{fill:#f3fffe;}.cls-88{fill:#e6f9ff;}.cls-89{fill:url(#linear-gradient-6);}.cls-90{fill:url(#linear-gradient-7);}.cls-91{fill:url(#linear-gradient-8);}.cls-92{fill:url(#linear-gradient-9);}.cls-93{fill:url(#linear-gradient-10);}.cls-94{fill:url(#linear-gradient-11);}.cls-95{fill:url(#linear-gradient-12);}.cls-96{fill:#ffe4ea;}.cls-97{fill:#ffcee4;}.cls-98{fill:#fffffc;}.cls-99{fill:url(#linear-gradient-13);}.cls-100{fill:url(#linear-gradient-14);}.cls-101{fill:url(#linear-gradient-15);}.cls-102{fill:url(#linear-gradient-16);}.cls-103{fill:url(#linear-gradient-17);}.cls-104{fill:url(#linear-gradient-18);}.cls-105{fill:url(#linear-gradient-19);}.cls-106{fill:url(#linear-gradient-20);}.cls-107{fill:url(#linear-gradient-21);}.cls-108{fill:url(#linear-gradient-22);}.cls-109{fill:url(#linear-gradient-23);}.cls-110{fill:url(#linear-gradient-24);}.cls-111{fill:url(#linear-gradient-25);}.cls-112{fill:url(#linear-gradient-26);}.cls-113{fill:url(#linear-gradient-27);}.cls-114{fill:url(#linear-gradient-28);}.cls-115{fill:url(#linear-gradient-29);}.cls-116{fill:#f2f4f9;}.cls-117{fill:#dbdbdb;}.cls-118{fill:#e1edfc;}.cls-119{fill:#fdfeff;}.cls-120{fill:#3b3840;}.cls-121{fill:#e2e6e9;}.cls-122{fill:#f37069;}.cls-123{fill:#cb5459;}.cls-124{fill:#bed7f3;}.cls-125{fill:#96adc3;}.cls-126{fill:#e8f3ff;}</style><clipPath id="clip-path" transform="translate(-821.8 -213.4)"><path class="cls-1" d="M2268.5,565.5l-41.3-23.8v.5l-421-244.4v.5l-35.4-20.5a9.8,9.8,0,0,0-14.6,8.4V641.5a19.1,19.1,0,0,0,9.6,16.5l47.4,27.5V685l419.5,243c0-.1,37.6,21.7,37.6,21.7a5.9,5.9,0,0,0,8.9-5.1V584.1A21.7,21.7,0,0,0,2268.5,565.5Z"/></clipPath><linearGradient id="linear-gradient" x1="-732.48" y1="1516.02" x2="148.1" y2="1008.06" gradientTransform="matrix(-1, 0, 0, 1, 896.06, -213.39)" gradientUnits="userSpaceOnUse"><stop offset="0" stop-color="#76aff3"/><stop offset="1" stop-color="#9acbff"/></linearGradient><linearGradient id="linear-gradient-2" x1="-668.57" y1="1626.8" x2="212.01" y2="1118.84" xlink:href="#linear-gradient"/><linearGradient id="Degradado_sin_nombre_11" x1="-334.86" y1="1408.14" x2="446.12" y2="996.38" gradientTransform="matrix(-1, 0, 0, 1, 1717.86, 0)" gradientUnits="userSpaceOnUse"><stop offset="0" stop-color="#d0d6ff"/><stop offset="0.9" stop-color="#55e8ff"/></linearGradient><linearGradient id="linear-gradient-3" x1="-413.65" y1="1582.39" x2="351.73" y2="1106.41" gradientTransform="matrix(-1, 0, 0, 1, 896.06, -213.39)" gradientUnits="userSpaceOnUse"><stop offset="0" stop-color="#6298ef"/><stop offset="1" stop-color="#82bbff"/></linearGradient><linearGradient id="linear-gradient-4" x1="-391.55" y1="1617.92" x2="373.83" y2="1141.93" xlink:href="#linear-gradient-3"/><linearGradient id="linear-gradient-5" x1="-333.53" y1="1282.57" x2="60.07" y2="1220.15" gradientTransform="matrix(-1, 0, 0, 1, 1717.86, 0)" xlink:href="#linear-gradient"/><linearGradient id="linear-gradient-6" x1="-172.33" y1="1230.07" x2="282.57" y2="1099.19" gradientTransform="matrix(-1, 0, 0, 1, 896.06, -213.39)" xlink:href="#Degradado_sin_nombre_11"/><linearGradient id="linear-gradient-7" x1="-161.34" y1="1268.28" x2="293.57" y2="1137.4" gradientTransform="matrix(-1, 0, 0, 1, 896.06, -213.39)" xlink:href="#Degradado_sin_nombre_11"/><linearGradient id="linear-gradient-8" x1="-167.25" y1="1247.73" x2="287.66" y2="1116.85" gradientTransform="matrix(-1, 0, 0, 1, 896.06, -213.39)" xlink:href="#Degradado_sin_nombre_11"/><linearGradient id="linear-gradient-9" x1="-166.46" y1="1250.49" x2="288.45" y2="1119.61" gradientTransform="matrix(-1, 0, 0, 1, 896.06, -213.39)" xlink:href="#Degradado_sin_nombre_11"/><linearGradient id="linear-gradient-10" x1="-165.43" y1="1254.07" x2="289.48" y2="1123.19" gradientTransform="matrix(-1, 0, 0, 1, 896.06, -213.39)" xlink:href="#Degradado_sin_nombre_11"/><linearGradient id="linear-gradient-11" x1="-764.6" y1="1460.34" x2="115.98" y2="952.38" gradientTransform="matrix(-1, 0, 0, 1, 896.06, -213.39)" gradientUnits="userSpaceOnUse"><stop offset="0" stop-color="#fff8e2"/><stop offset="0.9" stop-color="#ff5d21"/></linearGradient><linearGradient id="linear-gradient-12" x1="-700.69" y1="1571.12" x2="179.89" y2="1063.17" gradientTransform="matrix(-1, 0, 0, 1, 896.06, -213.39)" gradientUnits="userSpaceOnUse"><stop offset="0" stop-color="#fff8e2"/><stop offset="0.89" stop-color="#ff5d66"/></linearGradient><linearGradient id="linear-gradient-13" x1="-365.52" y1="1350.04" x2="415.87" y2="938.38" gradientTransform="matrix(-1, 0, 0, 1, 1717.86, 0)" gradientUnits="userSpaceOnUse"><stop offset="0" stop-color="#ffd7a6"/><stop offset="0.14" stop-color="#ffb98b"/><stop offset="0.39" stop-color="#ff865e"/><stop offset="0.61" stop-color="#ff613d"/><stop offset="0.79" stop-color="#ff4a28"/><stop offset="0.9" stop-color="#ff4221"/></linearGradient><linearGradient id="linear-gradient-14" x1="-446.89" y1="1528.86" x2="318.49" y2="1052.88" gradientTransform="matrix(-1, 0, 0, 1, 896.06, -213.39)" gradientUnits="userSpaceOnUse"><stop offset="0" stop-color="#ff7d7a"/><stop offset="0.99" stop-color="#eb4365"/></linearGradient><linearGradient id="linear-gradient-15" x1="-424.79" y1="1564.39" x2="340.59" y2="1088.4" gradientTransform="matrix(-1, 0, 0, 1, 896.06, -213.39)" gradientUnits="userSpaceOnUse"><stop offset="0" stop-color="#f27e7b"/><stop offset="0.99" stop-color="#db4752"/></linearGradient><linearGradient id="linear-gradient-16" x1="-624.5" y1="1325.86" x2="240.83" y2="1073" gradientTransform="matrix(-1, 0, 0, 1, 1717.86, 0)" gradientUnits="userSpaceOnUse"><stop offset="0" stop-color="#ffd7a6"/><stop offset="0.99" stop-color="#ff4246"/></linearGradient><linearGradient id="linear-gradient-17" x1="-327.03" y1="1496.63" x2="239.69" y2="1147.19" gradientTransform="matrix(-1, 0, 0, 1, 896.06, -213.39)" gradientUnits="userSpaceOnUse"><stop offset="0" stop-color="#ffd7a6"/><stop offset="1" stop-color="#ff4239"/></linearGradient><linearGradient id="linear-gradient-18" x1="-347.52" y1="1340.61" x2="306.69" y2="1027.47" gradientTransform="matrix(-1, 0, 0, 1, 1717.86, 0)" gradientUnits="userSpaceOnUse"><stop offset="0" stop-color="#ffddb2"/><stop offset="0.9" stop-color="#ff4d21"/></linearGradient><linearGradient id="linear-gradient-19" x1="-469.6" y1="1359.55" x2="442.44" y2="939.27" gradientTransform="matrix(-1, 0, 0, 1, 1717.86, 0)" gradientUnits="userSpaceOnUse"><stop offset="0" stop-color="#ffe4bc"/><stop offset="0.9" stop-color="#ff4221"/></linearGradient><linearGradient id="linear-gradient-20" x1="-312.79" y1="1330.3" x2="-97.41" y2="1150.18" gradientTransform="matrix(-1, 0, 0, 1, 896.06, -213.39)" gradientUnits="userSpaceOnUse"><stop offset="0" stop-color="#ffd7a6"/><stop offset="0.9" stop-color="#ff4221"/></linearGradient><linearGradient id="linear-gradient-21" x1="-312.08" y1="1331.15" x2="-96.7" y2="1151.03" xlink:href="#linear-gradient-20"/><linearGradient id="linear-gradient-22" x1="-314.24" y1="1191.65" x2="56.8" y2="1123.66" gradientTransform="matrix(-1, 0, 0, 1, 1717.86, 0)" gradientUnits="userSpaceOnUse"><stop offset="0" stop-color="#ff8380"/><stop offset="1" stop-color="#ff3e21"/></linearGradient><linearGradient id="linear-gradient-23" x1="-242.06" y1="1171.73" x2="412.66" y2="1062.13" gradientTransform="matrix(-1, 0, 0, 1, 1717.86, 0)" gradientUnits="userSpaceOnUse"><stop offset="0" stop-color="#ffdfd2"/><stop offset="0.9" stop-color="#ff2621"/></linearGradient><linearGradient id="linear-gradient-24" x1="-107.08" y1="1158.23" x2="335.12" y2="1019.09" xlink:href="#linear-gradient-23"/><linearGradient id="linear-gradient-25" x1="-192.05" y1="1161.54" x2="262.86" y2="1030.66" gradientTransform="matrix(-1, 0, 0, 1, 896.06, -213.39)" xlink:href="#linear-gradient-23"/><linearGradient id="linear-gradient-26" x1="-181.06" y1="1199.75" x2="273.85" y2="1068.87" gradientTransform="matrix(-1, 0, 0, 1, 896.06, -213.39)" xlink:href="#linear-gradient-23"/><linearGradient id="linear-gradient-27" x1="-186.97" y1="1179.2" x2="267.94" y2="1048.32" gradientTransform="matrix(-1, 0, 0, 1, 896.06, -213.39)" xlink:href="#linear-gradient-23"/><linearGradient id="linear-gradient-28" x1="-186.17" y1="1181.96" x2="268.73" y2="1051.08" gradientTransform="matrix(-1, 0, 0, 1, 896.06, -213.39)" xlink:href="#linear-gradient-23"/><linearGradient id="linear-gradient-29" x1="-185.14" y1="1185.54" x2="269.76" y2="1054.66" gradientTransform="matrix(-1, 0, 0, 1, 896.06, -213.39)" xlink:href="#linear-gradient-23"/></defs><title>Mindsteroid Home</title><g class="cls-2"><g id="illustration"><path class="cls-3" d="M868.3,1564.7a371.6,371.6,0,0,1-15.5-34.6c-33.2-85.4-38.4-180.5-21.9-271.4,33.2-182.6,155.3-321.7,294.6-408.3C1282.3,753,1460.2,712,1637.8,714.9c80.6,1.4,163.4,8.1,242.6-13.3A288,288,0,0,0,1990.2,645c34.7-28.7,64.4-64.5,97.7-95.3,69.3-64.2,150.3-119.7,236.8-147.2,73.2-23.2,151.6-20.1,215.5,26.3V1564.7Z" transform="translate(-821.8 -213.4)"/><path class="cls-4" d="M2164.8,359.1a20.1,20.1,0,1,1,20,20A20.1,20.1,0,0,1,2164.8,359.1Zm4.9,0a15.2,15.2,0,1,0,15.1-15.1A15.2,15.2,0,0,0,2169.7,359.1Z" transform="translate(-821.8 -213.4)"/><path class="cls-4" d="M1375.6,697l-25.9-26a2.4,2.4,0,0,1,0-3.5l25.9-25.9a2.4,2.4,0,0,1,3.5,0l26,25.9a2.4,2.4,0,0,1,0,3.5l-26,26a2.2,2.2,0,0,1-1.7.7A2.6,2.6,0,0,1,1375.6,697Zm1.8-50.2-22.5,22.5,22.5,22.4,22.4-22.4Z" transform="translate(-821.8 -213.4)"/><path class="cls-4" d="M1530.2,299.2v-27a2.5,2.5,0,0,1,2.5-2.5h27a2.5,2.5,0,0,1,2.5,2.5v27a2.5,2.5,0,0,1-2.5,2.5h-27A2.5,2.5,0,0,1,1530.2,299.2Zm27-24.5h-22v22h22Z" transform="translate(-821.8 -213.4)"/><rect class="cls-4" x="882.4" y="192.3" width="5" height="200"/><path class="cls-4" d="M1671.2,646.7h5v7h-5Zm0-18h5v7h-5Zm0-19h5v7h-5Zm0-18h5v7h-5Zm0-19h5v7h-5Zm0-18h5v7h-5Zm0-19h5v7h-5Zm0-18h5v7h-5Zm0-19h5v7h-5Z" transform="translate(-821.8 -213.4)"/><path class="cls-5" d="M1764.3,746.6l11.9-5.4a15.3,15.3,0,0,1,13.8.7l521.6,305.9a4.1,4.1,0,0,1,.2,7l-10.4,6.8a16.4,16.4,0,0,1-17.1.4l-92.9-54.1-1.2.8-73.9,43.4a22.8,22.8,0,0,1-11.1,3,21.8,21.8,0,0,1-11.1-3L1839.2,904a10.2,10.2,0,0,1-5.1-8.9,10.1,10.1,0,0,1,5.1-8.9l71.2-41.8-146.8-85.5A6.9,6.9,0,0,1,1764.3,746.6Z" transform="translate(-821.8 -213.4)"/><path class="cls-6" d="M1582.5,877.7s5.4,9.2,24.6,21.2a106.1,106.1,0,0,0,37.2,14.5l2.1-.5c73.4-43.4,74.3-41.3,74.3-45.2a28.8,28.8,0,0,0-1.7-8.7c-4.2-14.1-16.3-26.9-28.9-34.9l-1.5.9v-1.9c-7.6-4.5-15.2-7-21.1-6.1l-73.6,42.4-2.2,1.3c-1.3.9-4.5,1.8-7.4,6.4A13.1,13.1,0,0,0,1582.5,877.7Z" transform="translate(-821.8 -213.4)"/><path class="cls-7" d="M2096,1026.7,1841.1,878.5a6.6,6.6,0,0,1,0-11.4l76.6-45a19.3,19.3,0,0,1,19.3,0l251.3,146.1a8.7,8.7,0,0,1,0,15.1l-73.9,43.3A18.1,18.1,0,0,1,2096,1026.7Z" transform="translate(-821.8 -213.4)"/><path class="cls-8" d="M2188.3,978.3l-73.9,43.4a18.3,18.3,0,0,1-18.4,0L1841.1,873.6a6.9,6.9,0,0,1-2.8-3.3,6.7,6.7,0,0,0,2.8,8.2L2096,1026.7a18.1,18.1,0,0,0,18.4-.1l73.9-43.3a8.9,8.9,0,0,0,4-10.1A8.4,8.4,0,0,1,2188.3,978.3Z" transform="translate(-821.8 -213.4)"/><path class="cls-9" d="M1837.9,871.8c-.1,0-.1.7-.1.7S1837.9,872.1,1837.9,871.8Z" transform="translate(-821.8 -213.4)"/><path class="cls-10" d="M2096,1026.6a14.8,14.8,0,0,0,3.2,1.4v16.7a23,23,0,0,1-3.2-1.5l-254.5-148a6.5,6.5,0,0,1-3.3-6V873.3a6.4,6.4,0,0,0,3.3,5.3Z" transform="translate(-821.8 -213.4)"/><path class="cls-10" d="M2192.2,975.7v16.5l-.3.2c-.5,3.2-1.9,6-4,7.2l-73.5,43.4a15.1,15.1,0,0,1-2.2,1.1v-16.6a15.5,15.5,0,0,0,2.2-1.2l73.5-43.3a8.8,8.8,0,0,0,4.3-7.3Z" transform="translate(-821.8 -213.4)"/><path class="cls-11" d="M2113.2,1027.4v17.2a19.8,19.8,0,0,1-14,.4v-17.2A19.8,19.8,0,0,0,2113.2,1027.4Z" transform="translate(-821.8 -213.4)"/><path class="cls-11" d="M2051.4,951.9l-105.1-60.6c-4.3-2.5-3.8-6.9,1.3-9.9l26.3-15.1c5-2.9,12.6-3.3,17-.7L2096,926.2c4.3,2.5,3.8,6.9-1.3,9.9l-26.3,15.1C2063.4,954.1,2055.8,954.5,2051.4,951.9Z" transform="translate(-821.8 -213.4)"/><path class="cls-10" d="M2094.7,934l-26.3,15.1c-5,3-12.6,3.3-17,.8l-105.1-60.7a5.4,5.4,0,0,1-2.7-3.2c-.5,1.9.4,3.9,2.7,5.3l105.1,60.6c4.4,2.6,12,2.2,17-.7l26.3-15.1c3.3-1.9,4.7-4.4,4-6.7A7.8,7.8,0,0,1,2094.7,934Z" transform="translate(-821.8 -213.4)"/><path class="cls-12" d="M2057.2,823V941.3a4.5,4.5,0,0,1-2.6-.5l-85.1-49.1a1.5,1.5,0,0,1-.5-2.4l9.9-88.8Z" transform="translate(-821.8 -213.4)"/><path class="cls-12" d="M2083.3,927.1,2060,940.5a5.3,5.3,0,0,1-2.8.7V823.1l26,7.5,1.2,94.2C2084.8,925.5,2084.4,926.4,2083.3,927.1Z" transform="translate(-821.8 -213.4)"/><path class="cls-13" d="M2054.6,845.6l-75.5-42.9c-1.3-.8-1.2-2.1.4-3l23.4-13.5a5.8,5.8,0,0,1,5.3-.2l75.5,42.8c1.3.8,1.1,2.2-.4,3.1l-23.4,13.5A5.8,5.8,0,0,1,2054.6,845.6Z" transform="translate(-821.8 -213.4)"/><path class="cls-14" d="M2060.2,844.7l-8-2.3v97.7l1.9,1.1a5.8,5.8,0,0,0,5.3-.2l.8-.5Z" transform="translate(-821.8 -213.4)"/><path class="cls-15" d="M2275.7,541.6l-509-293.9c-13.5-7.8-24.5-1.5-24.5,14.1V668.5c0,15.6,11,34.6,24.5,42.4l509,293.9c13.6,7.8,24.5,1.5,24.5-14.1V584C2300.2,568.4,2289.3,549.4,2275.7,541.6Z" transform="translate(-821.8 -213.4)"/><path class="cls-16" d="M2300.2,990.8V966.4l-558-322.1v24.4c0,15.6,11,34.5,24.5,42.4l509,293.8C2289.3,1012.7,2300.2,1006.4,2300.2,990.8Z" transform="translate(-821.8 -213.4)"/><path class="cls-17" d="M2275.8,541.6,1766.5,247.5c-7.9-4.6-14.9-4.3-19.4-.2,4.1-1.1,9.1-.3,14.5,2.9l509.4,294c13.5,7.9,24.5,26.8,24.2,42.5V993.6c.3,6.5-1.6,11.4-4.8,14.3,6-1.7,9.9-7.7,9.8-17V584C2300.3,568.4,2289.4,549.4,2275.8,541.6Z" transform="translate(-821.8 -213.4)"/><g class="cls-18"><path class="cls-19" d="M2279.2,579.5V608l-534-308.3V271.2c0-4.5,3.2-6.3,7-4l520,300.1A15.7,15.7,0,0,1,2279.2,579.5Z" transform="translate(-821.8 -213.4)"/><path class="cls-20" d="M2279.2,608V948.1c0,4.5-3.1,6.3-7,4.1L1752.2,652a15.7,15.7,0,0,1-7-12.2V299.7Z" transform="translate(-821.8 -213.4)"/><polygon class="cls-19" points="1401.4 483.2 1150.4 338.2 1150.4 249.1 1401.4 394 1401.4 483.2"/><polygon class="cls-21" points="1383.4 645.1 1401.4 655.4 1401.4 663.8 1383.4 653.4 1383.4 645.1"/><polygon class="cls-21" points="1247.4 566.7 1368.4 636.6 1368.4 644.7 1247.4 574.8 1247.4 566.7"/><polygon class="cls-21" points="1383.4 619.1 1401.4 629.5 1401.4 637.8 1383.4 627.4 1383.4 619.1"/><polygon class="cls-21" points="1247.4 540.8 1368.4 610.6 1368.4 618.7 1247.4 548.9 1247.4 540.8"/><polygon class="cls-21" points="1383.4 593.1 1401.4 603.5 1401.4 611.8 1383.4 601.4 1383.4 593.1"/><polygon class="cls-21" points="1274.4 530.5 1368.4 584.8 1368.4 592.9 1274.4 538.6 1274.4 530.5"/><polygon class="cls-21" points="1383.4 567.1 1401.4 577.5 1401.4 585.8 1383.4 575.5 1383.4 567.1"/><polygon class="cls-21" points="1257.4 494.7 1368.4 558.7 1368.4 566.8 1257.4 502.8 1257.4 494.7"/><polygon class="cls-21" points="1383.4 541.2 1401.4 551.6 1401.4 559.9 1383.4 549.5 1383.4 541.2"/><polygon class="cls-21" points="1288.4 486.6 1368.4 532.8 1368.4 540.9 1288.4 494.8 1288.4 486.6"/><polygon class="cls-21" points="1383.4 515.2 1401.4 525.6 1401.4 533.9 1383.4 523.5 1383.4 515.2"/><polygon class="cls-21" points="1267.4 448.5 1368.4 506.8 1368.4 514.9 1267.4 456.6 1267.4 448.5"/><polygon class="cls-19" points="1009.4 443.3 975.4 423.6 975.4 306 1009.4 325.7 1009.4 443.3"/><polygon class="cls-19" points="1062.4 473.7 1028.4 454 1028.4 375.7 1062.4 395.3 1062.4 473.7"/><polygon class="cls-19" points="1114.4 504.1 1080.4 484.5 1080.4 339.8 1114.4 359.5 1114.4 504.1"/><polygon class="cls-19" points="1167.4 534.5 1133.4 514.9 1133.4 475.6 1167.4 495.3 1167.4 534.5"/><path class="cls-19" d="M1827.1,429.7c0-28.3,19.9-39.8,44.4-25.6s44.4,48.5,44.4,76.8-19.9,39.8-44.4,25.6a68.6,68.6,0,0,1-15.6-12.3l15.6-38.9Z" transform="translate(-821.8 -213.4)"/><path class="cls-19" d="M1812.5,431.3l44.4,25.6s-9.4,23.5-15.7,39C1824.4,478.9,1812.5,453.2,1812.5,431.3Z" transform="translate(-821.8 -213.4)"/></g><path class="cls-22" d="M2272.8,948,1768.7,656.4a19.3,19.3,0,0,1-9.5-16.4V284.6a9.9,9.9,0,0,1,3.2-7.1,11.3,11.3,0,0,0-6.2,8.8V641.7a21,21,0,0,0,10,16.4l504.1,291.6a5.9,5.9,0,0,0,7.4-1.2A5.7,5.7,0,0,1,2272.8,948Z" transform="translate(-821.8 -213.4)"/><path class="cls-10" d="M2308.1,532.7l-24.3,15a41.4,41.4,0,0,0-8-6.1L1766.5,247.5c-5.5-3.1-10.4-4-14.5-2.9l23.3-12.9v.2c4.5-2.3,10.4-1.9,16.9,1.9l509.3,294.1A33.1,33.1,0,0,1,2308.1,532.7Z" transform="translate(-821.8 -213.4)"/><path class="cls-10" d="M2326.2,570.3V977.2c0,8.2-3,13.7-7.8,16.1v.2l-26.7,14h-.1c5.2-2.2,8.5-7.9,8.5-16.5V584a43.6,43.6,0,0,0-1.1-9.3l25.6-14.8A38.4,38.4,0,0,1,2326.2,570.3Z" transform="translate(-821.8 -213.4)"/><path class="cls-23" d="M2324.6,559.9l-25.4,14.8a57.8,57.8,0,0,0-15.4-27l24.3-15A56.4,56.4,0,0,1,2324.6,559.9Z" transform="translate(-821.8 -213.4)"/><path class="cls-6" d="M2028,1214.6,1628.3,983.9c-2.4-1.4-2.1-3.8.6-5.4l136.5-78.7c2.7-1.6,6.8-1.8,9.2-.4l399.7,230.8c2.4,1.3,2.1,3.7-.7,5.3l-136.4,78.8C2034.5,1215.8,2030.3,1216,2028,1214.6Z" transform="translate(-821.8 -213.4)"/><path class="cls-24" d="M2025.6,1194.7l1.6.7v9.6a4.4,4.4,0,0,1-1.6-.6L1639.5,981.5a2.5,2.5,0,0,1-1.5-2.6c-.1,0-.1-9.3-.1-9.3a2.8,2.8,0,0,0,1.6,2.2Z" transform="translate(-821.8 -213.4)"/><path class="cls-24" d="M2168.2,1114.7v9.5c.2,1.1-.5,2.4-2.1,3.3l-131.8,76.1-1.1.5v-9.6l1.1-.5,131.8-76.1c1.5-.9,2.2-2.1,2.1-3.2Z" transform="translate(-821.8 -213.4)"/><path class="cls-25" d="M2025.5,1194.7,1639.4,971.8c-2.3-1.3-2-3.6.6-5.2l131.8-76.1a10,10,0,0,1,8.9-.3l386.2,222.9c2.3,1.4,2,3.7-.6,5.2l-131.9,76.1C2031.8,1195.9,2027.8,1196.1,2025.5,1194.7Z" transform="translate(-821.8 -213.4)"/><polygon class="cls-26" points="966.4 720 936.3 702.6 951.6 693.8 981.7 711.1 966.4 720"/><polygon class="cls-26" points="960.5 753 904.8 720.8 925 709.2 980.7 741.3 960.5 753"/><polygon class="cls-26" points="999.9 775.8 970.9 759 991.1 747.3 1020.2 764.1 999.9 775.8"/><polygon class="cls-26" points="1037.9 797.7 1008.8 780.9 1029 769.2 1058.1 786 1037.9 797.7"/><polygon class="cls-26" points="1075.9 819.6 1046.8 802.8 1067 791.1 1096.1 807.9 1075.9 819.6"/><polygon class="cls-26" points="1113.8 841.5 1084.7 824.7 1105 813.1 1134 829.9 1113.8 841.5"/><polygon class="cls-26" points="1151.8 863.4 1122.7 846.6 1142.9 835 1172 851.8 1151.8 863.4"/><polygon class="cls-26" points="1189.8 885.4 1160.7 868.6 1180.9 856.9 1210 873.7 1189.8 885.4"/><polygon class="cls-26" points="1270.6 932 1198.6 890.5 1218.9 878.8 1290.8 920.4 1270.6 932"/><polygon class="cls-26" points="903.3 755.8 874.2 739 894.4 727.4 923.5 744.2 903.3 755.8"/><polygon class="cls-26" points="941.3 777.8 912.2 761 932.4 749.3 961.5 766.1 941.3 777.8"/><polygon class="cls-26" points="979.2 799.7 950.1 782.9 970.4 771.2 999.4 788 979.2 799.7"/><polygon class="cls-26" points="1017.2 821.6 988.1 804.8 1008.3 793.1 1037.4 809.9 1017.2 821.6"/><polygon class="cls-26" points="1055.2 843.5 1026.1 826.7 1046.3 815 1075.4 831.8 1055.2 843.5"/><polygon class="cls-26" points="1093.1 865.4 1064 848.6 1084.3 837 1113.3 853.8 1093.1 865.4"/><polygon class="cls-26" points="1239.6 950 1183.4 917.5 1203.6 905.9 1259.8 938.3 1239.6 950"/><polygon class="cls-26" points="1174 912.1 1102 870.6 1122.2 858.9 1194.2 900.4 1174 912.1"/><polygon class="cls-26" points="898.4 788.9 842.7 756.7 862.9 745 918.6 777.2 898.4 788.9"/><polygon class="cls-26" points="937.8 811.6 908.7 794.8 928.9 783.2 958 800 937.8 811.6"/><polygon class="cls-26" points="1127.6 921.2 1098.6 904.4 1118.8 892.8 1147.9 909.6 1127.6 921.2"/><polygon class="cls-26" points="1208.5 967.9 1136.5 926.4 1156.7 914.7 1228.7 956.2 1208.5 967.9"/><polygon class="cls-26" points="1008.3 744.2 978.2 726.8 993.5 718 1023.6 735.3 1008.3 744.2"/><polygon class="cls-26" points="1050.2 768.4 1020.2 751 1035.4 742.2 1065.5 759.5 1050.2 768.4"/><polygon class="cls-26" points="1092.1 792.6 1062.1 775.2 1077.3 766.4 1107.4 783.7 1092.1 792.6"/><polygon class="cls-26" points="1134 816.8 1104 799.4 1119.3 790.6 1149.3 807.9 1134 816.8"/><polygon class="cls-26" points="1176 841 1145.9 823.6 1161.2 814.8 1191.2 832.1 1176 841"/><polygon class="cls-26" points="1301.7 913.5 1271.6 896.2 1286.9 887.4 1317 904.7 1301.7 913.5"/><polygon class="cls-26" points="1259.3 889.1 1187.8 847.8 1203.1 839 1274.6 880.2 1259.3 889.1"/><polygon class="cls-26" points="1089.7 899.3 946.7 816.8 966.9 805.1 1109.9 887.6 1089.7 899.3"/><path class="cls-27" d="M2166.5,1116.3l-131.8,76.1c-2.6,1.5-6.6,1.7-8.9.4l-386.2-223a2.8,2.8,0,0,1-1.3-1.6c-.8,1.3-.5,2.7,1.1,3.6l386.1,222.9c2.3,1.4,6.3,1.2,8.9-.3l131.9-76.1c1.7-1.1,2.4-2.4,2-3.6A4.8,4.8,0,0,1,2166.5,1116.3Z" transform="translate(-821.8 -213.4)"/><path class="cls-28" d="M2033.2,1195.1v9.3a10.3,10.3,0,0,1-6,.4v-9.2A10.3,10.3,0,0,0,2033.2,1195.1Z" transform="translate(-821.8 -213.4)"/><rect class="cls-29" x="842.4" y="754.3" width="2" height="2"/><rect class="cls-29" x="904.4" y="718.3" width="2" height="2"/><rect class="cls-29" x="978.4" y="739.3" width="2" height="2"/><rect class="cls-29" x="908.4" y="792.3" width="2" height="2"/><rect class="cls-29" x="956.4" y="798.3" width="2" height="2"/><rect class="cls-29" x="946.4" y="814.3" width="2" height="2"/><rect class="cls-29" x="1108.4" y="885.3" width="2" height="2"/><rect class="cls-29" x="1064.4" y="846.3" width="5" height="2"/><rect class="cls-29" x="1098.4" y="902.3" width="2" height="2"/><rect class="cls-29" x="1102.4" y="868.3" width="4" height="2"/><rect class="cls-29" x="1109.4" y="851.3" width="4" height="2"/><rect class="cls-29" x="1026.4" y="824.3" width="8" height="2"/><rect class="cls-29" x="1071.4" y="829.3" width="4" height="2"/><rect class="cls-29" x="988.4" y="802.3" width="6" height="2"/><rect class="cls-29" x="1030.4" y="807.3" width="7" height="2"/><rect class="cls-29" x="950.4" y="780.3" width="2" height="2"/><rect class="cls-29" x="997.4" y="785.3" width="2" height="2"/><rect class="cls-29" x="971.4" y="756.3" width="4" height="2"/><rect class="cls-29" x="1016.4" y="762.3" width="4" height="2"/><rect class="cls-29" x="1008.4" y="778.3" width="4" height="2"/><rect class="cls-29" x="1054.4" y="784.3" width="4" height="2"/><rect class="cls-29" x="1046.4" y="800.3" width="4" height="2"/><rect class="cls-29" x="1092.4" y="805.3" width="4" height="2"/><rect class="cls-29" x="1084.4" y="822.3" width="4" height="2"/><rect class="cls-29" x="1130.4" y="827.3" width="4" height="2"/><rect class="cls-29" x="1122.4" y="844.3" width="4" height="2"/><rect class="cls-29" x="1168.4" y="849.3" width="4" height="2"/><rect class="cls-29" x="1160.4" y="866.3" width="4" height="2"/><rect class="cls-29" x="1206.4" y="871.3" width="4" height="2"/><rect class="cls-29" x="912.4" y="758.3" width="2" height="2"/><rect class="cls-29" x="959.4" y="764.3" width="2" height="2"/><rect class="cls-29" x="874.4" y="737.3" width="2" height="2"/><rect class="cls-29" x="921.4" y="742.3" width="2" height="2"/><rect class="cls-29" x="1146.4" y="907.3" width="2" height="2"/><rect class="cls-29" x="1136.4" y="924.3" width="2" height="2"/><rect class="cls-29" x="1183.4" y="915.3" width="5" height="2"/><rect class="cls-29" x="1198.4" y="888.3" width="5" height="2"/><rect class="cls-29" x="1285.4" y="918.3" width="5" height="2"/><rect class="cls-29" x="1271.4" y="894.3" width="5" height="2"/><rect class="cls-29" x="1269.4" y="878.3" width="5" height="2"/><rect class="cls-29" x="1187.4" y="845.3" width="5" height="2"/><rect class="cls-29" x="1186.4" y="830.3" width="5" height="2"/><rect class="cls-29" x="1146.4" y="821.3" width="5" height="2"/><rect class="cls-29" x="1144.4" y="805.3" width="5" height="2"/><rect class="cls-29" x="1104.4" y="797.3" width="5" height="2"/><rect class="cls-29" x="1102.4" y="781.3" width="5" height="2"/><rect class="cls-29" x="1062.4" y="773.3" width="5" height="2"/><rect class="cls-29" x="1020.4" y="749.3" width="5" height="2"/><rect class="cls-29" x="1018.4" y="733.3" width="5" height="2"/><rect class="cls-29" x="978.4" y="724.3" width="5" height="2"/><rect class="cls-29" x="936.4" y="700.3" width="5" height="2"/><rect class="cls-29" x="976.4" y="709.3" width="5" height="2"/><rect class="cls-29" x="1060.4" y="757.3" width="5" height="2"/><rect class="cls-29" x="1312.4" y="902.3" width="5" height="2"/><rect class="cls-29" x="1190.4" y="898.3" width="4" height="2"/><rect class="cls-29" x="1226.4" y="954.3" width="2" height="2"/><rect class="cls-29" x="1255.4" y="936.3" width="4" height="2"/><rect class="cls-29" x="916.4" y="775.3" width="2" height="2"/><polygon class="cls-30" points="966.4 717.7 936.3 700.3 951.6 691.5 981.7 708.8 966.4 717.7"/><polygon class="cls-30" points="960.5 750.7 904.8 718.5 925 706.8 980.7 739 960.5 750.7"/><polygon class="cls-30" points="999.9 773.5 970.9 756.7 991.1 745 1020.2 761.8 999.9 773.5"/><polygon class="cls-30" points="1037.9 795.4 1008.8 778.6 1029 766.9 1058.1 783.7 1037.9 795.4"/><polygon class="cls-30" points="1075.9 817.3 1046.8 800.5 1067 788.8 1096.1 805.6 1075.9 817.3"/><polygon class="cls-30" points="1113.8 839.2 1084.7 822.4 1105 810.8 1134 827.5 1113.8 839.2"/><polygon class="cls-30" points="1151.8 861.1 1122.7 844.3 1142.9 832.7 1172 849.5 1151.8 861.1"/><polygon class="cls-30" points="1189.8 883.1 1160.7 866.3 1180.9 854.6 1210 871.4 1189.8 883.1"/><polygon class="cls-30" points="1270.6 929.7 1198.6 888.2 1218.9 876.5 1290.8 918.1 1270.6 929.7"/><polygon class="cls-30" points="903.3 753.5 874.2 736.7 894.4 725.1 923.5 741.9 903.3 753.5"/><polygon class="cls-30" points="941.3 775.5 912.2 758.7 932.4 747 961.5 763.8 941.3 775.5"/><polygon class="cls-30" points="979.2 797.4 950.1 780.6 970.4 768.9 999.4 785.7 979.2 797.4"/><polygon class="cls-30" points="1017.2 819.3 988.1 802.5 1008.3 790.8 1037.4 807.6 1017.2 819.3"/><polygon class="cls-30" points="1055.2 841.2 1026.1 824.4 1046.3 812.7 1075.4 829.5 1055.2 841.2"/><polygon class="cls-30" points="1093.1 863.1 1064 846.3 1084.3 834.7 1113.3 851.5 1093.1 863.1"/><polygon class="cls-30" points="1239.6 947.7 1183.4 915.2 1203.6 903.6 1259.8 936 1239.6 947.7"/><polygon class="cls-30" points="1174 909.8 1102 868.3 1122.2 856.6 1194.2 898.1 1174 909.8"/><polygon class="cls-30" points="898.4 786.6 842.7 754.4 862.9 742.7 918.6 774.9 898.4 786.6"/><polygon class="cls-30" points="937.8 809.3 908.7 792.5 928.9 780.9 958 797.7 937.8 809.3"/><polygon class="cls-30" points="1127.6 918.9 1098.6 902.1 1118.8 890.5 1147.9 907.3 1127.6 918.9"/><polygon class="cls-30" points="1208.5 965.6 1136.5 924 1156.7 912.4 1228.7 953.9 1208.5 965.6"/><polygon class="cls-30" points="1008.3 741.9 978.2 724.5 993.5 715.7 1023.6 733 1008.3 741.9"/><polygon class="cls-30" points="1050.2 766.1 1020.2 748.7 1035.4 739.9 1065.5 757.2 1050.2 766.1"/><polygon class="cls-30" points="1092.1 790.3 1062.1 772.9 1077.3 764.1 1107.4 781.4 1092.1 790.3"/><polygon class="cls-30" points="1134 814.5 1104 797.1 1119.3 788.3 1149.3 805.6 1134 814.5"/><polygon class="cls-30" points="1176 838.6 1145.9 821.3 1161.2 812.5 1191.2 829.8 1176 838.6"/><polygon class="cls-30" points="1301.7 911.2 1271.6 893.9 1286.9 885 1317 902.4 1301.7 911.2"/><polygon class="cls-30" points="1259.3 886.8 1187.8 845.5 1203.1 836.7 1274.6 877.9 1259.3 886.8"/><polygon class="cls-30" points="1089.7 897 946.7 814.5 966.9 802.8 1109.9 885.3 1089.7 897"/><path class="cls-15" d="M1641.8,890.5a39,39,0,0,1,1.3,5.7,67.7,67.7,0,0,1,1,8.9c0,.1-.1.2-.3.2l2.1-.4,73.4-42.7a15,15,0,0,0,.2-2.2,33.3,33.3,0,0,0-3.2-12.7Z" transform="translate(-821.8 -213.4)"/><path class="cls-10" d="M1644.1,905.1c0,.1-.1.2-.3.2a103.7,103.7,0,0,1-36.9-14.3c-19.1-11.9-24.4-21-24.4-21a13.2,13.2,0,0,1,1.7-10.5,15.2,15.2,0,0,1,5.1-5l12-6.9c14.1,8.7,38.9,27.3,41.8,48.6A67.7,67.7,0,0,1,1644.1,905.1Z" transform="translate(-821.8 -213.4)"/><path class="cls-31" d="M1688.8,816.9l-1.6.8v-1.8c-7.5-4.5-15-6.9-20.8-6.1l-75.3,43.3c13.9-2.3,51.4,41.7,51.4,41.7a273.2,273.2,0,0,0,39.6-17.8c31-17.4,35.3-25.5,35.3-25.5C1713.4,837.8,1701.5,825,1688.8,816.9Z" transform="translate(-821.8 -213.4)"/><path class="cls-15" d="M1591.6,853.1c5.6,14.8,22.6,36.5,51.1,41.9C1634.7,869.8,1605.4,850.8,1591.6,853.1Z" transform="translate(-821.8 -213.4)"/><polygon class="cls-10" points="865.4 604.3 865.4 602.5 830.4 622.4 832.1 623.1 865.4 604.3"/><polygon class="cls-32" points="843.1 620.1 836.3 616.3 855.9 604.9 862.7 608.7 843.1 620.1"/><polygon class="cls-33" points="852.2 607.1 855.4 608.9 858 605.6 854 603.2 852.2 607.1"/><path class="cls-33" d="M1678.5,822.4a17.9,17.9,0,0,1-.2,2.3l-11.8,6.7-1.1.6-.7.4-4.2-2.4c1.3-5.2,5.4-10.5,9.1-12.7s4.6-1.6,6.2-.7a5.2,5.2,0,0,1,1.7,1.6.5.5,0,0,0,.2.4,14.2,14.2,0,0,1,.7,2.2C1678.4,821.3,1678.5,821.8,1678.5,822.4Z" transform="translate(-821.8 -213.4)"/><path class="cls-34" d="M1680.3,819.3l-.5-.3a.1.1,0,0,0-.1-.1l-.7-.4-.9-.2h-1.7a5.8,5.8,0,0,0-1.6.5,8.4,8.4,0,0,0-1.4.6c-3.8,2.2-7,6.7-8.3,11.2a11.6,11.6,0,0,0-.4,1.8l.7-.4,1.1-.6,11.8-6.7,3.7-2.1A5.8,5.8,0,0,0,1680.3,819.3Z" transform="translate(-821.8 -213.4)"/><path class="cls-35" d="M1680.3,819.3l-.5-.3a6.5,6.5,0,0,0-2.1-.4,7.5,7.5,0,0,0-3.3.9l-.5.3a19.9,19.9,0,0,0-8.2,11.1l-.3,1.1-.7.4a11.6,11.6,0,0,1,.4-1.8c1.3-4.5,4.5-9,8.3-11.2a8.4,8.4,0,0,1,1.4-.6,5.8,5.8,0,0,1,1.6-.5h1.7l.9.2.7.4a.1.1,0,0,1,.1.1Z" transform="translate(-821.8 -213.4)"/><path class="cls-36" d="M1644.4,894.6c-8.1-24.8-35.9-43.4-50.6-42.8l-2.2,1.3c13.7-2.3,43.1,17.1,51.3,42.1a3,3,0,0,1,.2,1,67.7,67.7,0,0,1,1,8.9c0,.1-.1.2-.3.2l2.1-.4A59.5,59.5,0,0,0,1644.4,894.6Z" transform="translate(-821.8 -213.4)"/><path class="cls-6" d="M1406.3,911.3a12.4,12.4,0,0,0,6.2-1.5l253-146a6.8,6.8,0,0,0,3.6-5.8c0-2.5-1.6-4.9-4.3-6.5l-58.7-34.8a14.9,14.9,0,0,0-7.6-2,12.4,12.4,0,0,0-6.2,1.5l-253,146.1a6.6,6.6,0,0,0-3.6,5.7c0,2.6,1.6,4.9,4.4,6.5l58.6,34.9A15.9,15.9,0,0,0,1406.3,911.3Z" transform="translate(-821.8 -213.4)"/><path class="cls-37" d="M1663.6,739.4,1411.2,885.2v17.5L1663.6,757a3.2,3.2,0,0,0,1.7-2c.1,0,.1-18.1.1-18.1A3,3,0,0,1,1663.6,739.4Z" transform="translate(-821.8 -213.4)"/><path class="cls-37" d="M1339.2,846.7v18a4.4,4.4,0,0,0,2.5,3l58.5,34.7V884.9l-58.5-34.7c-1.8-1.1-2.5-2.3-2.5-3.5Z" transform="translate(-821.8 -213.4)"/><path class="cls-38" d="M1410.6,885.5l253-146.1c2.6-1.4,2.3-4.1-.7-5.8l-58.7-34.8c-2.9-1.8-7.5-2-10-.5l-253,146.1c-2.6,1.5-2.3,4.1.7,5.8l58.7,34.9C1403.6,886.8,1408.1,887,1410.6,885.5Z" transform="translate(-821.8 -213.4)"/><path class="cls-39" d="M1341.9,847.6l58.7,34.9c3,1.7,7.5,1.9,10,.4l253-146a3.6,3.6,0,0,0,1.4-1.3,2.7,2.7,0,0,1-1.4,3.8l-253,146.1c-2.5,1.5-7,1.3-10-.4l-58.7-34.9c-2.3-1.3-3-3.1-2.1-4.5A4.9,4.9,0,0,0,1341.9,847.6Z" transform="translate(-821.8 -213.4)"/><path class="cls-40" d="M1400.2,884.8v17.8h.3c3,1.8,7.5,2,10.1.5l.6-.4V885.1l-.6.3c-2.6,1.5-7.1,1.3-10.1-.4Z" transform="translate(-821.8 -213.4)"/><path class="cls-41" d="M1518.4,753.4l34.6-19.9c2.5-1.5,2.2-4.1-.8-5.9l-18-10.4c-3-1.7-7.5-1.9-10.1-.4l-34.5,20c-2.6,1.5-2.3,4.1.7,5.8l18,10.4C1511.3,754.7,1515.8,754.9,1518.4,753.4Z" transform="translate(-821.8 -213.4)"/><path class="cls-42" d="M1488.2,738.1a4.3,4.3,0,0,0,2.4,2.7l18,10.4c3,1.8,7.5,2,10,.5l34.6-20a3.6,3.6,0,0,0,1.4-1.3,2.9,2.9,0,0,1-1.6,3.1l-34.6,19.9c-2.6,1.5-7.1,1.3-10.1-.4l-18-10.4C1488,741.3,1487.3,739.5,1488.2,738.1Z" transform="translate(-821.8 -213.4)"/><path class="cls-43" d="M1510.2,755.2v43.4a10.6,10.6,0,0,0,7,.2V755.3A11.2,11.2,0,0,1,1510.2,755.2Z" transform="translate(-821.8 -213.4)"/><path class="cls-44" d="M1518.2,753.4l-1,.5v46.3l1-.5,34.3-20c1.4-.8,1.9-1.9,1.6-3h.1V730.5a3,3,0,0,1-1.7,3Z" transform="translate(-821.8 -213.4)"/><path class="cls-44" d="M1488.2,739.7v46.5h.2a4.5,4.5,0,0,0,2.3,2.5l17.9,10.4,1.6.7V753.6a8,8,0,0,1-1.6-.8l-17.9-10.4a4.6,4.6,0,0,1-2.4-2.7Z" transform="translate(-821.8 -213.4)"/><path class="cls-45" d="M1664.9,416.6a37.6,37.6,0,0,0,10.1-8.9c6.8-8.5,10.2-19.4,8.6-27.7s-5.3-10.6-11.4-10.3c-10.1.6-25,11.8-38.9,29.1l1.5,2c13-16.4,26.9-26.9,36.2-27.4,5.3-.3,8.7,2.7,9.8,8.8s-1.4,16.2-7.2,23.5-16.6,13.9-27.9,9l-1.9,3.6C1651.4,421.5,1658.7,420.1,1664.9,416.6Z" transform="translate(-821.8 -213.4)"/><polygon class="cls-46" points="845.7 198.8 839 195 836.9 201.7 843.6 205.6 845.7 198.8"/><polygon class="cls-46" points="566.2 118.8 836.9 201.7 839 195 568.3 112.1 566.2 118.8"/><polygon class="cls-47" points="698.4 517.3 698.5 382.8 690.4 387.7 690.3 522.3 698.4 517.3"/><polygon class="cls-46" points="697.5 392 689.4 387.7 689.3 522.3 697.4 526.5 697.5 392"/><polygon class="cls-48" points="706.4 521.6 706.5 387 698.4 392 698.3 526.5 706.4 521.6"/><polygon class="cls-49" points="697.7 392 689.9 387.7 698.5 382.8 706.3 387 697.7 392"/><polygon class="cls-48" points="660.7 460.4 811 203.9 805 200.3 654.6 456.8 660.7 460.4"/><polygon class="cls-46" points="654.6 456.8 804.9 200.3 798.9 196.6 648.5 453.3 654.6 456.8"/><path class="cls-50" d="M1505.8,600.5c-6.1.9-9.3-5.2-7.1-13.6s9.2-16.1,15.4-17.1,9.3,5.2,7,13.6S1512,599.5,1505.8,600.5Z" transform="translate(-821.8 -213.4)"/><polygon class="cls-50" points="698.9 397.5 679.8 386.5 697 357.4 716.1 368.5 698.9 397.5"/><polygon class="cls-47" points="697.4 360.4 697.5 320.1 689.4 324.7 689.3 365.1 697.4 360.4"/><polygon class="cls-46" points="697.5 327.3 689.4 322.9 689.3 367 697.4 371.4 697.5 327.3"/><polygon class="cls-48" points="705.4 364.7 705.5 324.3 697.4 328.9 697.3 369.3 705.4 364.7"/><polygon class="cls-49" points="697.3 328 689.5 323.8 698 318.9 705.9 323.1 697.3 328"/><path class="cls-50" d="M1520,608.8c-6.2.9-9.4-5.2-7.1-13.6s9.2-16.1,15.3-17.1,9.4,5.2,7.1,13.6S1526.2,607.8,1520,608.8Z" transform="translate(-821.8 -213.4)"/><path class="cls-51" d="M1524.8,611.4c-6.2,1-9.4-5.1-7.1-13.6s9.2-16.1,15.3-17,9.4,5.2,7.1,13.6S1531,610.5,1524.8,611.4Z" transform="translate(-821.8 -213.4)"/><path class="cls-52" d="M1517.7,597.8c2.3-8.4,9.2-16.1,15.3-17a6.3,6.3,0,0,1,5.4,1.5,7,7,0,0,0-4.4-.8c-6.2,1-13.1,8.6-15.3,17-1.5,5.5-.7,9.9,1.7,12.2C1517.3,608.8,1516.1,603.9,1517.7,597.8Z" transform="translate(-821.8 -213.4)"/><polygon class="cls-48" points="572.9 122.7 843.6 205.6 845.7 198.8 575 115.9 572.9 122.7"/><polygon class="cls-53" points="572.9 122.7 566.2 118.8 568.3 112.1 575 115.9 572.9 122.7"/><path class="cls-50" d="M1618.9,415.3c-6.2.9-9.4-5.2-7.1-13.6s9.1-16.1,15.3-17,9.4,5.1,7.1,13.6S1625,414.3,1618.9,415.3Z" transform="translate(-821.8 -213.4)"/><polygon class="cls-50" points="812 212.3 792.9 201.3 810 172.3 829.1 183.3 812 212.3"/><polygon class="cls-48" points="819.2 190.1 840.2 153.2 834.2 149.6 813.1 186.6 819.2 190.1"/><polygon class="cls-46" points="813.1 186.6 834.2 149.6 828.1 145.9 807 183 813.1 186.6"/><path class="cls-50" d="M1633,423.6c-6.1.9-9.3-5.2-7.1-13.6s9.2-16.1,15.4-17.1,9.3,5.2,7,13.6S1639.2,422.6,1633,423.6Z" transform="translate(-821.8 -213.4)"/><path class="cls-51" d="M1637.8,426.2c-6.1,1-9.3-5.1-7.1-13.6s9.2-16,15.4-17,9.3,5.2,7,13.6S1644,425.3,1637.8,426.2Z" transform="translate(-821.8 -213.4)"/><path class="cls-52" d="M1630.7,412.6c2.3-8.4,9.2-16,15.4-17a6.3,6.3,0,0,1,5.3,1.5,7,7,0,0,0-4.4-.8c-6.1,1-13,8.6-15.3,17.1-1.5,5.4-.6,9.8,1.8,12.1C1630.3,423.6,1629.1,418.7,1630.7,412.6Z" transform="translate(-821.8 -213.4)"/><polygon class="cls-50" points="815.3 183.6 802.4 175.9 800.1 179.8 813.1 187.1 815.3 183.6"/><ellipse class="cls-54" cx="1385.9" cy="440.3" rx="90.5" ry="52.3" transform="translate(-837.9 -159.2) rotate(-2.2)"/><polygon class="cls-55" points="617 121.6 651.6 211.2 475.7 218.1 503.2 126 617 121.6"/><ellipse class="cls-56" cx="1382.1" cy="341.4" rx="57.4" ry="33.1" transform="translate(-834 -159.4) rotate(-2.2)"/><polygon class="cls-55" points="583.1 79.6 596.6 121.2 523.5 124 533.7 81.5 583.1 79.6"/><path class="cls-38" d="M1363.2,304.7c9.8,5.2,25.5,4.6,34.9-1.4s9.1-14.9-.8-20.1-25.5-4.6-34.9,1.3S1353.3,299.5,1363.2,304.7Z" transform="translate(-821.8 -213.4)"/><ellipse class="cls-54" cx="1381.9" cy="336" rx="36.6" ry="21.1" transform="translate(-833.8 -159.4) rotate(-2.2)"/><path class="cls-57" d="M1375,297.2a11.6,11.6,0,0,0,10.7-.4c2.9-1.8,2.8-4.6-.2-6.2a12.1,12.1,0,0,0-10.8.4C1371.8,292.9,1371.9,295.6,1375,297.2Z" transform="translate(-821.8 -213.4)"/><polygon class="cls-57" points="566 81.1 565.9 77.8 550.7 78.1 550.8 81.3 566 81.1"/><path class="cls-58" d="M1374.8,294.3a12.1,12.1,0,0,0,10.8-.4c2.9-1.8,2.8-4.6-.2-6.2a12.1,12.1,0,0,0-10.8.4C1371.7,289.9,1371.8,292.7,1374.8,294.3Z" transform="translate(-821.8 -213.4)"/><path class="cls-59" d="M1295.5,440.6c1.8,12.3,11,24,27.6,32.7,36.2,19.1,93.4,16.8,128-4.9,15.9-10,24.2-22.4,25-34.8,2,14.4-6.1,29.4-24.8,41.2-34.5,21.7-91.8,24-127.9,4.9C1303.9,469.5,1294.6,455.1,1295.5,440.6Z" transform="translate(-821.8 -213.4)"/><path class="cls-60" d="M1325.3,338.3c-.3,9,5.5,17.9,17.6,24.3,22.9,12,59.3,10.6,81.1-3.2,8.7-5.4,13.8-12,15.4-18.8-.4,8-5.6,16.1-15.9,22.6-21.9,13.8-58.2,15.2-81.1,3.2C1328.6,359.1,1322.9,348.6,1325.3,338.3Z" transform="translate(-821.8 -213.4)"/><path class="cls-60" d="M1355.6,293.3c.1,3.7,2.7,7.3,7.7,9.9,9.8,5.2,25.5,4.6,34.9-1.4,4-2.5,6.2-5.6,6.7-8.7.1,3.6-2.2,7.3-6.8,10.2-9.4,6-25.1,6.6-34.9,1.4C1357.5,301.7,1355,297.5,1355.6,293.3Z" transform="translate(-821.8 -213.4)"/><path class="cls-61" d="M1478.1,353.7l2.3-.9c-29.9-17.8-44.6-56.8-27.5-97.2,6.6-15.3,7.5-27.7,3.3-35.1-3.3-5.9-9.9-8.5-18.3-6.4-11.4,2.9-21.2,9.8-30.6,20.3-22.6,25-25.9,44.8-27.9,55.6l3,.2c2-10.4,5.2-30.7,26.5-54.4,8.6-9.5,17.8-16.2,28.3-18.8,7.4-1.8,13.3.1,16.3,5.3,3.8,6.8,2.5,18.3-3.5,32.6C1432.3,296.6,1447.9,337.4,1478.1,353.7Z" transform="translate(-821.8 -213.4)"/><path class="cls-57" d="M1379.7,290.4a2.6,2.6,0,0,0,2.1.3c.7-.2.9-.7.3-1.1a2.5,2.5,0,0,0-2.1-.3C1379.3,289.5,1379.2,290,1379.7,290.4Z" transform="translate(-821.8 -213.4)"/><path class="cls-57" d="M1477.9,353.6a2.4,2.4,0,0,0,2.2.3c.7-.2.8-.7.3-1.1a2.8,2.8,0,0,0-2.2-.3C1477.5,352.7,1477.4,353.2,1477.9,353.6Z" transform="translate(-821.8 -213.4)"/><ellipse class="cls-5" cx="1426.8" cy="1122.6" rx="89.6" ry="51.8"/><ellipse class="cls-62" cx="1426.8" cy="994.8" rx="85" ry="49.1"/><path class="cls-63" d="M2310.8,1332.1l27.2-159.4H2159.2l26.8,159Z" transform="translate(-821.8 -213.4)"/><ellipse class="cls-64" cx="1426.8" cy="1117.4" rx="62.8" ry="36.2"/><polygon class="cls-65" points="1447.7 968.3 1411.7 968.3 1421.9 1151.3 1436.7 1151.3 1447.7 968.3"/><path class="cls-66" d="M2165.5,1220.2c3.8,8.1,11.2,15.8,22.3,22.1,33.7,19.5,88.5,19.5,122.2,0,10.1-5.8,17.2-12.7,21.2-20.1l-12.8,82c-3.5,5.7-9.2,11.1-17.2,15.7-28.9,16.7-75.7,16.7-104.6.1-9-5.2-15.1-11.5-18.5-18Z" transform="translate(-821.8 -213.4)"/><path class="cls-67" d="M2188.2,1241.1c33.3,19.2,87.4,19.2,120.8,0,15.9-9.2,24.1-21.2,24.8-33.2.8,13.1-7.4,26.5-24.8,36.5-33.4,19.3-87.5,19.3-120.8,0-17.4-10-25.7-23.4-24.9-36.5C2164,1219.9,2172.2,1231.9,2188.2,1241.1Z" transform="translate(-821.8 -213.4)"/><path class="cls-68" d="M2221.6,1316.5a2.5,2.5,0,0,1-1-2.6l.6-.2v-9.2a11.3,11.3,0,0,1,1.3-5,4.6,4.6,0,0,1,3.4-2.4,1.9,1.9,0,0,1,1.9.5c1.9,1.8,2.8,4.1,3.7,6.3s2,5,4.3,6.6a1.5,1.5,0,0,0,1.3.3s.3-.2.2-1.1,0-2.4-.1-3.6c-.2-4.5-.5-9.1,1.2-14.2a7.3,7.3,0,0,1,4-4.7,6.8,6.8,0,0,1,4-.6c3.1.3,4.7,2,6.1,3.6s1.5,1.8,2.2,2.8a5.7,5.7,0,0,1-.1-1.3,18.8,18.8,0,0,1,4.3-12.9,10.4,10.4,0,0,1,4.6-3.4,7.5,7.5,0,0,1,4.5,0h.1l.3-8.5,2.8-.7c-.2,3.4-.3,6.9-.4,10.4a14.8,14.8,0,0,1,4,3.2,35.2,35.2,0,0,1,10,23.9,23.3,23.3,0,0,1-1.8,10,6.9,6.9,0,0,1-3.9,3.9,4.3,4.3,0,0,1-4.5-.8c-2.3-2.1-3.2-5.1-3.8-7.7-2.5-9.9-3-20.6-2.8-31a11.1,11.1,0,0,0-1.9-.9,4.3,4.3,0,0,0-2.5-.1,5.3,5.3,0,0,0-2.4,2,16.9,16.9,0,0,0-3.8,11.7,31.2,31.2,0,0,0,1.7,9.2c.7,1.2,1.2,2.5,1.8,3.8l-2.7,1.3a26.4,26.4,0,0,1-1.8-3.8,47,47,0,0,0-6.5-9.7,7.6,7.6,0,0,0-5-3.1,3.2,3.2,0,0,0-1.9.2,4.4,4.4,0,0,0-1.9,2.7c-1.6,4.8-1.4,9.3-1.1,13.7,0,1.2.1,2.4.1,3.7a3.4,3.4,0,0,1-1.8,3.2,4.4,4.4,0,0,1-4.8.1c-2.6-1.8-3.6-4.5-4.7-7s-1.7-4.3-3.4-5.9h-.1c-.1,0-.2.2-.3.3a7.9,7.9,0,0,0-.8,4.1v14.7Zm51.9-8.5c.6,2.7,1.4,5.4,3.5,7.3a1.9,1.9,0,0,0,1.9.6,3.5,3.5,0,0,0,1.5-1.8,21.4,21.4,0,0,0,1.6-9.4,34.4,34.4,0,0,0-9.7-23.2l-1.5-1.5C2270.7,1289.5,2271.3,1299.1,2273.5,1308Z" transform="translate(-821.8 -213.4)"/><path class="cls-69" d="M2204.2,1352.2c24.5,14.2,64.2,14.2,88.8,0,11.3-6.5,17.3-15,18.2-23.5,1,9.9-5.1,20.1-18.2,27.7-24.6,14.1-64.3,14.1-88.8,0-13.2-7.6-19.2-17.8-18.2-27.7C2186.8,1337.2,2192.8,1345.7,2204.2,1352.2Z" transform="translate(-821.8 -213.4)"/><ellipse class="cls-70" cx="1426.8" cy="932.3" rx="94.7" ry="54.7"/><path class="cls-71" d="M2154.2,1145.7v-2h.1C2154.3,1144.4,2154.2,1145.1,2154.2,1145.7Z" transform="translate(-821.8 -213.4)"/><path class="cls-72" d="M2181.9,1184.1c36.9,21.3,96.7,21.3,133.6,0,18.5-10.7,27.7-24.7,27.7-38.7v13.3h-.1c-1,13.2-10.1,26.2-27.6,36.3-36.9,21.3-96.7,21.3-133.6,0-17.4-10.1-26.6-23.1-27.6-36.3h-.1v-13.3C2154.2,1159.4,2163.4,1173.4,2181.9,1184.1Z" transform="translate(-821.8 -213.4)"/><path class="cls-71" d="M2343.2,1143.7v2a14.1,14.1,0,0,0-.1-2Z" transform="translate(-821.8 -213.4)"/><path class="cls-73" d="M2181.7,1181.5c36.9,21.3,96.9,21.3,133.9,0,17.8-10.3,27-23.7,27.6-37.2.7,14.4-8.5,29-27.6,40.1-37,21.3-97,21.3-133.9,0-19.2-11.1-28.4-25.7-27.7-40.1C2154.6,1157.8,2163.8,1171.2,2181.7,1181.5Z" transform="translate(-821.8 -213.4)"/><ellipse class="cls-70" cx="1426.8" cy="910.8" rx="81.4" ry="47"/><path class="cls-71" d="M2167.2,1124.2v-1.8A10.8,10.8,0,0,1,2167.2,1124.2Z" transform="translate(-821.8 -213.4)"/><path class="cls-72" d="M2191.1,1157.1c31.8,18.4,83.4,18.4,115.2,0,16-9.2,23.9-21.2,23.9-33.2v18.8h-.1c-.8,11.3-8.7,22.5-23.8,31.2-31.8,18.3-83.4,18.3-115.2,0-15-8.7-23-19.9-23.8-31.2h-.1v-18.8C2167.2,1135.9,2175.2,1147.9,2191.1,1157.1Z" transform="translate(-821.8 -213.4)"/><path class="cls-71" d="M2330.2,1122.7v1.8a10.9,10.9,0,0,0-.1-1.8Z" transform="translate(-821.8 -213.4)"/><path class="cls-73" d="M2191.1,1157.4c31.8,18.4,83.3,18.4,115.1,0,15.3-8.8,23.2-20.4,23.7-32,.6,12.5-7.3,25-23.7,34.5-31.8,18.4-83.3,18.4-115.1,0-16.5-9.5-24.4-22-23.8-34.5C2167.8,1137,2175.7,1148.6,2191.1,1157.4Z" transform="translate(-821.8 -213.4)"/><ellipse class="cls-74" cx="1426.8" cy="910.8" rx="57.2" ry="33"/><path class="cls-75" d="M2289,1104.9c-22.3-12.9-58.5-12.9-80.8,0-10.3,5.9-15.8,13.5-16.6,21.3-.9-9.1,4.6-18.4,16.6-25.3,22.3-12.9,58.5-12.9,80.8,0,12.1,6.9,17.6,16.2,16.6,25.3C2304.8,1118.4,2299.3,1110.8,2289,1104.9Z" transform="translate(-821.8 -213.4)"/><path class="cls-75" d="M2295,1156.9l11.2-6.5c1.5-.8,1.3-2.3-.4-3.3a6.6,6.6,0,0,0-5.8-.3l-11.2,6.5c-1.5.9-1.3,2.4.4,3.3A6.6,6.6,0,0,0,2295,1156.9Z" transform="translate(-821.8 -213.4)"/><path class="cls-5" d="M1561.2,1292.6v-.2h.2l18.4-10.6c.3-1.2.5-2.5.7-3.7,21.8,5.7,42.2,15.5,62.3,25.4,9.8,4.7,19.5,9.5,29.4,14s20.7,8.4,31.3,12.1c22.4,7.6,45.1,14.3,67.6,21.6l16.5,5.5c2.6.9,4.7,2.3,7.2.7l6-4.4c8.3-6.4,16.1-13.4,24.6-19.5s19-11.4,28.8-16.6,20.4-10.6,30.7-15.6c20.7-10,41.6-19.5,62.4-29.2,16.1-7.4,31.9-15.3,47.7-23,18.9,13.8,37.4,27.8,55.5,42.5,11.5,9.4,10.4,27.5-2.3,35l-.3.2-221,127.2-265.7-154.2v-7.2Z" transform="translate(-821.8 -213.4)"/><path class="cls-5" d="M2101.7,1305.9l.7-.3-.7.3Z" transform="translate(-821.8 -213.4)"/><path class="cls-5" d="M2104.6,1305l-.8.2Z" transform="translate(-821.8 -213.4)"/><path class="cls-5" d="M2106.1,1304.7h0Z" transform="translate(-821.8 -213.4)"/><path class="cls-5" d="M2108.3,1304.5h0Z" transform="translate(-821.8 -213.4)"/><path class="cls-5" d="M2110.3,1304.7h0Z" transform="translate(-821.8 -213.4)"/><polygon class="cls-76" points="1229.4 1046.7 1236.9 1058.7 1232.9 1082.2 1223.7 1094.8 1210.9 1086 1215.9 1050.7 1229.4 1046.7"/><polygon class="cls-77" points="1003.5 1218.8 1227.2 1089.8 969.8 941.3 746.2 1070.2 1003.5 1218.8"/><polygon class="cls-78" points="762 1067.9 1007.4 1208.5 1018.7 1185.4 1011.1 1164.4 762 1031.3 770.9 1052.6 762 1067.9"/><path class="cls-78" d="M1745.7,1188.2,1584,1281.3a65.5,65.5,0,0,0,3.6-20.4c0-6.6-1.3-12-3.6-16.2l161.7-93.1c8-4.6,14.5-.8,14.5,8.4v3.1C1760.2,1172.3,1753.7,1183.6,1745.7,1188.2Z" transform="translate(-821.8 -213.4)"/><polygon class="cls-79" points="765.1 1042.3 783.4 1053 783.4 1051.5 764.9 1040.7 765.1 1042.3"/><polygon class="cls-79" points="893.4 1116.1 1016.4 1187.1 1016.4 1185.6 893.4 1114.5 893.4 1116.1"/><polygon class="cls-79" points="773.4 1051.7 1011.4 1189.4 1011.4 1187.9 773.4 1050.2 773.4 1051.7"/><polygon class="cls-79" points="765.6 1051.6 1012.4 1194.1 1012.4 1192.5 765.7 1050.1 765.6 1051.6"/><polygon class="cls-79" points="921.4 1146.3 1011.4 1198.6 1011.4 1197.1 921.4 1144.8 921.4 1146.3"/><polygon class="cls-79" points="763.8 1060 805.4 1084.1 805.4 1082.5 764.1 1058.7 763.8 1060"/><polygon class="cls-79" points="763.1 1064.1 1009.4 1205.8 1009.4 1204.3 763.5 1062.8 763.1 1064.1"/><path class="cls-80" d="M2031,1305.3l-202.3,116.5a80.7,80.7,0,0,0,4.5-25.5c0-8.2-1.6-15.1-4.5-20.3L2031,1259.5c10-5.8,18.2-1,18.2,10.5v3.8C2049.2,1285.4,2041,1299.6,2031,1305.3Z" transform="translate(-821.8 -213.4)"/><path class="cls-81" d="M1825.2,1439.9l214-123.2c12.7-7.3,23-25.2,23-39.8v-4.1c0-14.7-10.3-20.7-23-13.3l-214,123.1v8l213.9-123.1c8.9-5.1,16.1-1,16.1,9.3v4.1c0,10.2-7.2,22.7-16.1,27.9l-213.9,123.1Z" transform="translate(-821.8 -213.4)"/><polygon class="cls-82" points="1003.4 1177.2 1003.4 1169.2 746.4 1020.8 746.4 1028 1003.4 1177.2"/><polygon class="cls-83" points="1003.4 1226.4 1003.4 1218.4 746.4 1070 746.4 1077.3 1003.4 1226.4"/><path class="cls-84" d="M2054.8,1257.5c-4.1-2-9.6-1.5-15.6,2l-214,123.1v.3l-257.3-148.8,223.7-129,257.6,149.1Z" transform="translate(-821.8 -213.4)"/><polygon class="cls-85" points="1010.4 1099 1115.9 1038.1 1110.7 1035.1 1005.2 1096 1010.4 1099"/><polygon class="cls-85" points="1044.4 1096.6 1104.2 1062.1 1099 1059.1 1039.2 1093.6 1044.4 1096.6"/><path class="cls-86" d="M1865.4,1197.2l-68.6-39.7c-7.4-4.2-18.5-4.7-24.9-1L1659,1221.6c-6.3,3.7-5.5,10.1,1.8,14.4l68.7,39.6c7.4,4.3,18.5,4.7,24.9,1.1l112.8-65.2C1873.6,1207.8,1872.8,1201.4,1865.4,1197.2Z" transform="translate(-821.8 -213.4)"/><path class="cls-87" d="M1865.4,1193.6l-68.6-39.7c-7.4-4.2-18.5-4.7-24.9-1L1659,1218.1c-6.3,3.6-5.5,10.1,1.8,14.3l68.7,39.7c7.4,4.2,18.5,4.7,24.9,1l112.8-65.2C1873.6,1204.2,1872.8,1197.8,1865.4,1193.6Z" transform="translate(-821.8 -213.4)"/><path class="cls-88" d="M1748.6,1269.3l112-64.7c3.2-1.8,2.8-5.1-.9-7.2l-69.6-40.2c-3.7-2.1-9.2-2.3-12.4-.5l-112,64.7c-3.2,1.8-2.8,5,.9,7.2l69.6,40.1C1739.8,1270.9,1745.4,1271.1,1748.6,1269.3Z" transform="translate(-821.8 -213.4)"/><polygon class="cls-89" points="902.6 997.7 968 960.4 963.4 957.7 897.9 995 902.6 997.7"/><polygon class="cls-90" points="877.7 1011.7 896.2 1001.3 891.5 998.6 873 1009.1 877.7 1011.7"/><polygon class="cls-91" points="903.1 1012.1 956.6 981.2 951.9 978.5 898.4 1009.4 903.1 1012.1"/><polygon class="cls-92" points="942.3 1012.7 964.3 1000 959.6 997.3 937.6 1010 942.3 1012.7"/><polygon class="cls-93" points="919.5 1041.3 1013.8 986.8 1009.2 984.1 914.8 1038.6 919.5 1041.3"/><polygon class="cls-94" points="1229.4 972.5 1236.9 984.5 1232.9 1008 1223.7 1020.5 1210.9 1011.8 1215.9 976.5 1229.4 972.5"/><polygon class="cls-95" points="1003.5 1144.6 1227.2 1015.6 969.8 867.1 746.2 996 1003.5 1144.6"/><polygon class="cls-96" points="762 993.7 1007.4 1134.3 1018.7 1111.2 1011.1 1090.2 762 957.1 770.9 978.4 762 993.7"/><path class="cls-96" d="M1745.7,1114,1584,1207.1a65.5,65.5,0,0,0,3.6-20.4c0-6.6-1.3-12-3.6-16.2l161.7-93.1c8-4.6,14.5-.8,14.5,8.4v3.1C1760.2,1098.1,1753.7,1109.4,1745.7,1114Z" transform="translate(-821.8 -213.4)"/><polygon class="cls-97" points="765.1 968.1 783.4 978.8 783.4 977.2 764.9 966.5 765.1 968.1"/><polygon class="cls-97" points="893.4 1041.9 1016.4 1112.9 1016.4 1111.4 893.4 1040.3 893.4 1041.9"/><polygon class="cls-97" points="773.4 977.5 1011.4 1115.2 1011.4 1113.7 773.4 976 773.4 977.5"/><polygon class="cls-97" points="765.6 977.4 1012.4 1119.9 1012.4 1118.3 765.7 975.9 765.6 977.4"/><polygon class="cls-97" points="921.4 1072.1 1011.4 1124.4 1011.4 1122.9 921.4 1070.6 921.4 1072.1"/><polygon class="cls-97" points="763.8 985.8 805.4 1009.9 805.4 1008.3 764.1 984.5 763.8 985.8"/><polygon class="cls-97" points="763.1 989.9 1009.4 1131.6 1009.4 1130.1 763.5 988.6 763.1 989.9"/><path class="cls-98" d="M2031,1231.1l-202.3,116.5a80.7,80.7,0,0,0,4.5-25.5c0-8.2-1.6-15.1-4.5-20.3L2031,1185.3c10-5.8,18.2-1,18.2,10.5v3.8C2049.2,1211.2,2041,1225.3,2031,1231.1Z" transform="translate(-821.8 -213.4)"/><path class="cls-99" d="M1825.2,1365.7l214-123.2c12.7-7.3,23-25.2,23-39.8v-4.1c0-14.7-10.3-20.7-23-13.3l-214,123.1v8l213.9-123.1c8.9-5.1,16.1-1,16.1,9.3v4.1c0,10.2-7.2,22.7-16.1,27.9l-213.9,123.1Z" transform="translate(-821.8 -213.4)"/><polygon class="cls-100" points="1003.4 1103 1003.4 1095 746.4 946.6 746.4 953.8 1003.4 1103"/><polygon class="cls-101" points="1003.4 1152.2 1003.4 1144.2 746.4 995.8 746.4 1003.1 1003.4 1152.2"/><path class="cls-102" d="M2054.8,1183.3c-4.1-2-9.6-1.5-15.6,2l-214,123.1v.3l-257.3-148.8,223.7-129L2049.2,1180Z" transform="translate(-821.8 -213.4)"/><polygon class="cls-103" points="746.2 996 1003.4 1144.5 1003.4 1141 749.3 994.3 746.2 996"/><path class="cls-104" d="M1825.2,1354.4v3.5h1v-.6l213-122.5c8.8-5.1,16-17.6,16-27.8v-3.5c0,10.2-7.2,22.7-16,27.8l-213,122.6v.6Z" transform="translate(-821.8 -213.4)"/><path class="cls-105" d="M1568,1159.9l3.3-1.9,254.9,147.2v-.3l213.6-123.1a21.8,21.8,0,0,1,7.6-2.9l1.9,1.1,5.5,3.3c-4.1-2-9.5-1.5-15.5,2l-214.1,123.1v.3Z" transform="translate(-821.8 -213.4)"/><polygon class="cls-106" points="1010.4 1024.8 1115.9 963.9 1110.7 960.9 1005.2 1021.8 1010.4 1024.8"/><polygon class="cls-107" points="1044.4 1022.4 1104.2 987.9 1099 984.9 1039.2 1019.4 1044.4 1022.4"/><path class="cls-108" d="M1865.4,1122.9l-68.6-39.6c-7.4-4.3-18.5-4.7-24.9-1L1659,1147.4c-6.3,3.7-5.5,10.1,1.8,14.4l68.7,39.6c7.4,4.3,18.5,4.7,24.9,1.1l112.8-65.2C1873.6,1133.6,1872.8,1127.2,1865.4,1122.9Z" transform="translate(-821.8 -213.4)"/><path class="cls-109" d="M1865.4,1119.4l-68.6-39.7c-7.4-4.2-18.5-4.7-24.9-1L1659,1143.8c-6.3,3.7-5.5,10.2,1.8,14.4l68.7,39.7c7.4,4.2,18.5,4.7,24.9,1l112.8-65.2C1873.6,1130,1872.8,1123.6,1865.4,1119.4Z" transform="translate(-821.8 -213.4)"/><path class="cls-110" d="M1748.6,1195.1l112-64.7c3.2-1.8,2.8-5.1-.9-7.2l-69.6-40.2c-3.7-2.1-9.2-2.3-12.4-.5l-112,64.7c-3.2,1.8-2.8,5,.9,7.2l69.6,40.1C1739.8,1196.7,1745.4,1196.9,1748.6,1195.1Z" transform="translate(-821.8 -213.4)"/><polygon class="cls-111" points="902.6 923.5 968 886.2 963.4 883.5 897.9 920.8 902.6 923.5"/><polygon class="cls-112" points="877.7 937.5 896.2 927.1 891.5 924.4 873 934.9 877.7 937.5"/><polygon class="cls-113" points="903.1 937.9 956.6 907 951.9 904.3 898.4 935.2 903.1 937.9"/><polygon class="cls-114" points="942.3 938.5 964.3 925.8 959.6 923.1 937.6 935.8 942.3 938.5"/><polygon class="cls-115" points="919.5 967.1 1013.8 912.6 1009.2 909.9 914.8 964.4 919.5 967.1"/><polygon class="cls-5" points="778.4 881 778.4 873.6 764 865.3 781.2 855.4 503.7 695.2 125.8 913.4 143.9 923.8 130.4 931.6 130.4 939 404.2 1097.1 778.4 881"/><polygon class="cls-116" points="405.4 1063.8 135.3 907.8 505.8 693.9 775.9 849.8 405.4 1063.8"/><polygon class="cls-117" points="772.4 869.7 772.4 870.8 506.8 717.4 141.6 928.3 136.4 928.3 136.4 931.4 406.7 1087.3 777.4 873.4 777.4 870.2 772.4 869.7"/><polygon class="cls-35" points="406.3 1084.1 136.2 928.2 506.8 714.3 776.8 870.2 406.3 1084.1"/><polygon class="cls-118" points="358.5 981.7 437.6 1027.4 430.6 1031.4 351.5 985.8 358.5 981.7"/><polygon class="cls-118" points="259.3 893.5 464.5 1011.9 457.5 1015.9 252.3 897.5 259.3 893.5"/><polygon class="cls-118" points="286.2 878 491.3 996.4 484.3 1000.4 279.2 882 286.2 878"/><polygon class="cls-118" points="399.9 912.6 435.3 933.1 428.3 937.1 392.9 916.7 399.9 912.6"/><polygon class="cls-118" points="459 946.7 518.1 980.9 511.1 984.9 452 950.8 459 946.7"/><polygon class="cls-118" points="339.9 847 545 965.4 538 969.4 332.9 851 339.9 847"/><polygon class="cls-118" points="403.5 852.7 571.8 949.9 564.8 953.9 396.5 856.7 403.5 852.7"/><polygon class="cls-118" points="530.9 895.3 598.7 934.4 591.7 938.4 523.9 899.3 530.9 895.3"/><polygon class="cls-118" points="420.4 800.5 625.5 918.9 618.5 922.9 413.4 804.5 420.4 800.5"/><polygon class="cls-118" points="490.5 809.9 523.3 828.9 516.3 832.9 483.5 814 490.5 809.9"/><polygon class="cls-118" points="547.4 842.8 652.4 903.4 645.4 907.4 540.4 846.8 547.4 842.8"/><polygon class="cls-118" points="474.1 769.5 679.2 887.9 672.2 891.9 467.1 773.5 474.1 769.5"/><polygon class="cls-118" points="549.8 782.1 706.1 872.4 699.1 876.4 542.8 786.1 549.8 782.1"/><rect class="cls-119" x="1582.4" y="641.3" width="6" height="165"/><path class="cls-35" d="M1723.4,1425.3l2.5-4.3,6.4,3.7-2.4,4.3Zm-16.1-9.1,2.5-4.4,6.4,3.7-2.4,4.3Zm-16.1-9.2,2.5-4.3,6.4,3.6-2.4,4.4Zm-16.1-9.2,2.5-4.3,6.4,3.7-2.5,4.3Zm-16.1-9.1,2.4-4.3,6.5,3.6-2.5,4.3Zm-16.1-9.2,2.4-4.3,6.5,3.7-2.5,4.3Zm-16.1-9.1,2.4-4.3,6.5,3.6-2.5,4.3Zm-16.1-9.2,2.4-4.3,6.5,3.7-2.5,4.3Zm-16.1-9.1,2.4-4.4,6.4,3.7-2.4,4.3Zm-16.2-9.2,2.5-4.3,6.4,3.6-2.4,4.4Zm-16.1-9.2,2.5-4.3,6.4,3.7-2.4,4.3Z" transform="translate(-821.8 -213.4)"/><rect class="cls-35" x="1892.3" y="1376.5" width="183.7" height="4.96" transform="translate(-1238.6 893.6) rotate(-28.3)"/><path class="cls-35" d="M1049,1244l2.5-4.3,6.4,3.7-2.4,4.3Zm-16.1-9.1,2.5-4.3,6.4,3.6-2.4,4.3Zm-16.1-9.2,2.5-4.3,6.4,3.7-2.4,4.3Zm-16.1-9.2,2.5-4.3,6.4,3.7-2.4,4.3Zm-16.1-9.1,2.5-4.3,6.4,3.6-2.5,4.4Zm-16.1-9.2,2.4-4.3,6.5,3.7-2.5,4.3Zm-16.1-9.1,2.4-4.3,6.5,3.6-2.5,4.3Zm-14.2-8.1,2.4-4.3,4.6,2.6-2.5,4.3Z" transform="translate(-821.8 -213.4)"/><rect class="cls-35" x="1534.4" y="422.3" width="5" height="189"/><path class="cls-35" d="M2356.2,1049.7h5v7h-5Zm0-18h5v7h-5Zm0-19h5v7h-5Zm0-19h5v7h-5Zm0-18h5v7h-5Zm0-19h5v7h-5Zm0-18h5v7h-5Zm0-19h5v7h-5Zm0-18h5v7h-5Zm0-19h5v7h-5Zm0-18h5v7h-5Zm0-19h5v7h-5Z" transform="translate(-821.8 -213.4)"/><path class="cls-35" d="M2374.5,655.2l3.5-3.5-17.5-17.5a2.6,2.6,0,0,0-3.5,0l-17.1,17.2,3.5,3.5,15.4-15.4Z" transform="translate(-821.8 -213.4)"/><path class="cls-35" d="M1468.4,1338.8a20.1,20.1,0,1,1,20.1,20.1A20.1,20.1,0,0,1,1468.4,1338.8Zm5,0a15.1,15.1,0,1,0,15.1-15.1A15.1,15.1,0,0,0,1473.4,1338.8Z" transform="translate(-821.8 -213.4)"/><path class="cls-5" d="M1096.9,1281l13.9-7.8h.1l.6-.4,271.4-156.6a5,5,0,0,1,2.6-.8l14.1-1.6,16.3-1.9h.6a2.2,2.2,0,0,1,.9,1.7.7.7,0,0,1-.1.5l-9.5,13-9.1,12.3a5.9,5.9,0,0,1-1.8,1.3l-271.5,156.8-14.2,8-.6.3h-.1c-1.8.8-4.1.5-6.6-1-5.6-3.2-10.1-10.9-10.1-17.3C1093.8,1284.3,1095,1282,1096.9,1281Z" transform="translate(-821.8 -213.4)"/><path class="cls-120" d="M1415.6,1106.2a.6.6,0,0,1-1,.6,2.3,2.3,0,0,1-1-1.7.6.6,0,0,1,1-.6A2.3,2.3,0,0,1,1415.6,1106.2Z" transform="translate(-821.8 -213.4)"/><polygon class="cls-120" points="593.7 893.3 584.1 906.3 575.9 892.9 592.2 891 593.7 893.3"/><polygon class="cls-121" points="585 905 575 918.6 561.7 894.5 577.6 892.7 585 905"/><path class="cls-122" d="M1395.4,1116.6,1116,1277.4l-7.1-11.7,272.2-157c1.8-1.2,4.4-1.1,7.3.5A20.8,20.8,0,0,1,1395.4,1116.6Z" transform="translate(-821.8 -213.4)"/><path class="cls-121" d="M1407.6,1115.7c0,3.3-2.3,4.7-5.2,3a11.5,11.5,0,0,1-5.2-9c0-3.3,2.3-4.6,5.2-3A11.5,11.5,0,0,1,1407.6,1115.7Z" transform="translate(-821.8 -213.4)"/><path class="cls-123" d="M1398.4,1126.6c0,3.4-1.3,5.8-3.3,6.7L1123.6,1290l-7.6-12.6,279.4-160.8A20.3,20.3,0,0,1,1398.4,1126.6Z" transform="translate(-821.8 -213.4)"/><path class="cls-124" d="M1126.5,1283.6c0,6.4-4.5,9-10.1,5.8s-10-11-10-17.4,4.5-9,10-5.8S1126.5,1277.2,1126.5,1283.6Z" transform="translate(-821.8 -213.4)"/><path class="cls-124" d="M1094.8,1273.7l14.1-7.9,14.7,24.2-14.9,8.5Z" transform="translate(-821.8 -213.4)"/><path class="cls-125" d="M1116.4,1266.2c-3.2-1.9-6-1.8-7.8-.1,1.6-.5,3.7-.2,6,1.1,5.5,3.2,10,11,10,17.4,0,2.7-.8,4.7-2.1,5.9,2.4-.7,4-3.1,4-6.9C1126.5,1277.2,1122,1269.4,1116.4,1266.2Z" transform="translate(-821.8 -213.4)"/><path class="cls-126" d="M1112.1,1291.7c0,6.4-4.5,9-10.1,5.8s-10-10.9-10-17.3,4.5-9,10-5.8S1112.1,1285.3,1112.1,1291.7Z" transform="translate(-821.8 -213.4)"/></g></g>
</svg>